<svg width="18" height="14" viewBox="0 0 18 14" fill="none" xmlns="http://www.w3.org/2000/svg">
<path d="M9.9517 0.751734C10.1767 0.526769 10.4819 0.400391 10.8001 0.400391C11.1183 0.400391 11.4235 0.526769 11.6485 0.751734L17.0485 6.15173C17.2735 6.37677 17.3998 6.68194 17.3998 7.00013C17.3998 7.31833 17.2735 7.6235 17.0485 7.84853L11.6485 13.2485C11.4222 13.4671 11.1191 13.5881 10.8044 13.5853C10.4898 13.5826 10.1888 13.4564 9.96632 13.2339C9.74383 13.0114 9.61762 12.7105 9.61489 12.3958C9.61215 12.0812 9.73311 11.7781 9.9517 11.5517L13.2001 8.20013H1.8001C1.48184 8.20013 1.17661 8.07371 0.95157 7.84866C0.726526 7.62362 0.600098 7.31839 0.600098 7.00013C0.600098 6.68187 0.726526 6.37665 0.95157 6.15161C1.17661 5.92656 1.48184 5.80013 1.8001 5.80013H13.2001L9.9517 2.44853C9.72673 2.2235 9.60035 1.91833 9.60035 1.60013C9.60035 1.28194 9.72673 0.976767 9.9517 0.751734Z" fill="black"/>
</svg>
