<svg width="18" height="14" viewBox="0 0 18 14" fill="none" xmlns="http://www.w3.org/2000/svg">
<path d="M8.0483 13.2483C7.82327 13.4732 7.5181 13.5996 7.1999 13.5996C6.8817 13.5996 6.57653 13.4732 6.3515 13.2483L0.951501 7.84827C0.726537 7.62323 0.600158 7.31806 0.600158 6.99986C0.600158 6.68167 0.726537 6.3765 0.951501 6.15147L6.3515 0.751465C6.57782 0.532875 6.88095 0.411922 7.19558 0.414656C7.51022 0.417391 7.81119 0.543592 8.03368 0.766083C8.25617 0.988572 8.38238 1.28955 8.38511 1.60418C8.38784 1.91882 8.26689 2.22194 8.0483 2.44826L4.7999 5.79987H16.1999C16.5182 5.79987 16.8234 5.92629 17.0484 6.15134C17.2735 6.37638 17.3999 6.68161 17.3999 6.99986C17.3999 7.31813 17.2735 7.62335 17.0484 7.84839C16.8234 8.07344 16.5182 8.19987 16.1999 8.19987H4.7999L8.0483 11.5515C8.27327 11.7765 8.39965 12.0817 8.39965 12.3999C8.39965 12.7181 8.27327 13.0232 8.0483 13.2483Z" fill="black"/>
</svg>
